<mxfile host="app.diagrams.net" modified="2020-08-29T04:11:03.395Z" agent="5.0 (Windows NT 10.0; Win64; x64) AppleWebKit/537.36 (KHTML, like Gecko) Chrome/81.0.4044.138 Safari/537.36 OPR/68.0.3618.206" etag="jM3CKkwTaNdj-NUG8dV0" version="13.6.5" type="github">
  <diagram id="RNWo8KM5zXLVf5Jeuu8x" name="Page-1">
    <mxGraphModel dx="1381" dy="764" grid="1" gridSize="10" guides="1" tooltips="1" connect="1" arrows="1" fold="1" page="1" pageScale="1" pageWidth="827" pageHeight="1169" math="0" shadow="0">
      <root>
        <mxCell id="0" />
        <mxCell id="1" parent="0" />
        <mxCell id="R4fq8n4Yimcy0f63Pn9B-8" style="edgeStyle=orthogonalEdgeStyle;rounded=0;orthogonalLoop=1;jettySize=auto;html=1;exitX=0.5;exitY=1;exitDx=0;exitDy=0;entryX=0.5;entryY=0;entryDx=0;entryDy=0;" edge="1" parent="1" source="R4fq8n4Yimcy0f63Pn9B-1" target="R4fq8n4Yimcy0f63Pn9B-2">
          <mxGeometry relative="1" as="geometry" />
        </mxCell>
        <mxCell id="R4fq8n4Yimcy0f63Pn9B-1" value="Start" style="ellipse;whiteSpace=wrap;html=1;" vertex="1" parent="1">
          <mxGeometry x="80" y="40" width="120" height="80" as="geometry" />
        </mxCell>
        <mxCell id="R4fq8n4Yimcy0f63Pn9B-9" style="edgeStyle=orthogonalEdgeStyle;rounded=0;orthogonalLoop=1;jettySize=auto;html=1;exitX=0.5;exitY=1;exitDx=0;exitDy=0;entryX=0.5;entryY=0;entryDx=0;entryDy=0;" edge="1" parent="1" source="R4fq8n4Yimcy0f63Pn9B-2" target="R4fq8n4Yimcy0f63Pn9B-4">
          <mxGeometry relative="1" as="geometry" />
        </mxCell>
        <mxCell id="R4fq8n4Yimcy0f63Pn9B-2" value="Tensao, Corrente, Resistencia" style="shape=internalStorage;whiteSpace=wrap;html=1;dx=15;dy=15;rounded=1;arcSize=8;strokeWidth=2;" vertex="1" parent="1">
          <mxGeometry x="39.06" y="160" width="201.87" height="90" as="geometry" />
        </mxCell>
        <mxCell id="R4fq8n4Yimcy0f63Pn9B-11" style="edgeStyle=orthogonalEdgeStyle;rounded=0;orthogonalLoop=1;jettySize=auto;html=1;exitX=0.5;exitY=1;exitDx=0;exitDy=0;entryX=0.5;entryY=0;entryDx=0;entryDy=0;entryPerimeter=0;" edge="1" parent="1" source="R4fq8n4Yimcy0f63Pn9B-3" target="R4fq8n4Yimcy0f63Pn9B-5">
          <mxGeometry relative="1" as="geometry" />
        </mxCell>
        <mxCell id="R4fq8n4Yimcy0f63Pn9B-3" value="Resistencia = Tensao / Corrente" style="rounded=1;whiteSpace=wrap;html=1;absoluteArcSize=1;arcSize=14;strokeWidth=2;" vertex="1" parent="1">
          <mxGeometry x="40" y="430" width="200" height="90" as="geometry" />
        </mxCell>
        <mxCell id="R4fq8n4Yimcy0f63Pn9B-10" style="edgeStyle=orthogonalEdgeStyle;rounded=0;orthogonalLoop=1;jettySize=auto;html=1;exitX=0.5;exitY=1;exitDx=0;exitDy=0;entryX=0.5;entryY=0;entryDx=0;entryDy=0;" edge="1" parent="1" source="R4fq8n4Yimcy0f63Pn9B-4" target="R4fq8n4Yimcy0f63Pn9B-3">
          <mxGeometry relative="1" as="geometry" />
        </mxCell>
        <mxCell id="R4fq8n4Yimcy0f63Pn9B-4" value="Tensao, Corrente" style="html=1;strokeWidth=2;shape=manualInput;whiteSpace=wrap;rounded=1;size=26;arcSize=11;" vertex="1" parent="1">
          <mxGeometry x="55" y="290" width="170" height="90" as="geometry" />
        </mxCell>
        <mxCell id="R4fq8n4Yimcy0f63Pn9B-5" value="Resistencia" style="strokeWidth=2;html=1;shape=mxgraph.flowchart.document2;whiteSpace=wrap;size=0.25;" vertex="1" parent="1">
          <mxGeometry x="49.99" y="570" width="180" height="100" as="geometry" />
        </mxCell>
        <mxCell id="R4fq8n4Yimcy0f63Pn9B-6" value="End" style="ellipse;whiteSpace=wrap;html=1;" vertex="1" parent="1">
          <mxGeometry x="80" y="710" width="120" height="80" as="geometry" />
        </mxCell>
        <mxCell id="R4fq8n4Yimcy0f63Pn9B-7" value="" style="endArrow=classic;html=1;entryX=0.5;entryY=0;entryDx=0;entryDy=0;" edge="1" parent="1" source="R4fq8n4Yimcy0f63Pn9B-5" target="R4fq8n4Yimcy0f63Pn9B-6">
          <mxGeometry width="50" height="50" relative="1" as="geometry">
            <mxPoint x="370" y="420" as="sourcePoint" />
            <mxPoint x="420" y="370" as="targetPoint" />
          </mxGeometry>
        </mxCell>
      </root>
    </mxGraphModel>
  </diagram>
</mxfile>
